<svg width="16" height="15" viewBox="0 0 16 15" fill="none" xmlns="http://www.w3.org/2000/svg">
<g clip-path="url(#clip0_1_716)">
<path d="M0.15625 2.5C0.15625 1.53477 0.941016 0.75 1.90625 0.75H6.28125V4.25C6.28125 4.73398 6.67227 5.125 7.15625 5.125H10.6562V8.625H6.0625C5.69883 8.625 5.40625 8.91758 5.40625 9.28125C5.40625 9.64492 5.69883 9.9375 6.0625 9.9375H10.6562V13C10.6562 13.9652 9.87148 14.75 8.90625 14.75H1.90625C0.941016 14.75 0.15625 13.9652 0.15625 13V2.5ZM10.6562 9.9375V8.625H13.6668L12.6004 7.55859C12.3434 7.30156 12.3434 6.88594 12.6004 6.63164C12.8574 6.37734 13.273 6.37461 13.5273 6.63164L15.7148 8.81914C15.9719 9.07617 15.9719 9.4918 15.7148 9.74609L13.5273 11.9336C13.2703 12.1906 12.8547 12.1906 12.6004 11.9336C12.3461 11.6766 12.3434 11.2609 12.6004 11.0066L13.6668 9.94023H10.6562V9.9375ZM10.6562 4.25H7.15625V0.75L10.6562 4.25Z" fill="#F3F4F6"/>
</g>
<defs>
<clipPath id="clip0_1_716">
<rect width="15.75" height="14" fill="white" transform="translate(0.15625 0.75)"/>
</clipPath>
</defs>
</svg>
