<svg width="15" height="15" viewBox="0 0 15 15" fill="none" xmlns="http://www.w3.org/2000/svg">
<g clip-path="url(#clip0_1_713)">
<path d="M3.59375 2.5C3.59375 1.53477 4.37852 0.75 5.34375 0.75H9.71875V4.25C9.71875 4.73398 10.1098 5.125 10.5938 5.125H14.0938V13C14.0938 13.9652 13.309 14.75 12.3438 14.75H5.34375C4.37852 14.75 3.59375 13.9652 3.59375 13V9.9375H8.3543L7.28789 11.0039C7.03086 11.2609 7.03086 11.6766 7.28789 11.9309C7.54492 12.1852 7.96055 12.1879 8.21484 11.9309L10.4023 9.74336C10.6594 9.48633 10.6594 9.0707 10.4023 8.81641L8.21484 6.62891C7.95781 6.37187 7.54219 6.37187 7.28789 6.62891C7.03359 6.88594 7.03086 7.30156 7.28789 7.55586L8.3543 8.62227H3.59375V2.5ZM3.59375 8.625V9.9375H0.75C0.386328 9.9375 0.09375 9.64492 0.09375 9.28125C0.09375 8.91758 0.386328 8.625 0.75 8.625H3.59375ZM14.0938 4.25H10.5938V0.75L14.0938 4.25Z" fill="#F3F4F6"/>
</g>
<defs>
<clipPath id="clip0_1_713">
<rect width="14" height="14" fill="white" transform="translate(0.09375 0.75)"/>
</clipPath>
</defs>
</svg>
