<svg width="109" height="28" viewBox="0 0 109 28" fill="none" xmlns="http://www.w3.org/2000/svg">
<g clip-path="url(#clip0_1_629)">
<g clip-path="url(#clip1_1_629)">
<path d="M23.3953 2.29531C23.775 2.57656 24 3.02656 24 3.5V6.875V19.25C24 21.3219 21.9844 23 19.5 23C17.0156 23 15 21.3219 15 19.25C15 17.1781 17.0156 15.5 19.5 15.5C20.025 15.5 20.5312 15.575 21 15.7156V8.89062L9 12.4906V22.25C9 24.3219 6.98438 26 4.5 26C2.01562 26 0 24.3219 0 22.25C0 20.1781 2.01562 18.5 4.5 18.5C5.025 18.5 5.53125 18.575 6 18.7156V11.375V8C6 7.33906 6.43594 6.75313 7.06875 6.56094L22.0687 2.06094C22.5234 1.925 23.0156 2.00938 23.3953 2.29531Z" fill="#A855F7"/>
</g>
</g>
<path d="M46.098 9.54688H42.9872C42.9304 9.14441 42.8144 8.78693 42.6392 8.47443C42.464 8.1572 42.2391 7.88731 41.9645 7.66477C41.6899 7.44223 41.3726 7.27178 41.0128 7.15341C40.6577 7.03504 40.2718 6.97585 39.8551 6.97585C39.1023 6.97585 38.4465 7.16288 37.8878 7.53693C37.3291 7.90625 36.8958 8.44602 36.5881 9.15625C36.2803 9.86174 36.1264 10.7187 36.1264 11.7273C36.1264 12.7642 36.2803 13.6354 36.5881 14.3409C36.9006 15.0464 37.3362 15.5791 37.8949 15.9389C38.4536 16.2988 39.0999 16.4787 39.8338 16.4787C40.2457 16.4787 40.6269 16.4242 40.9773 16.3153C41.3324 16.2064 41.6473 16.0478 41.9219 15.8395C42.1965 15.6264 42.4238 15.3684 42.6037 15.0653C42.7884 14.7623 42.9162 14.4167 42.9872 14.0284L46.098 14.0426C46.0175 14.7102 45.8163 15.3542 45.4943 15.9744C45.1771 16.59 44.7486 17.1416 44.2088 17.6293C43.6738 18.1122 43.0346 18.4957 42.2912 18.7798C41.5526 19.0592 40.7169 19.1989 39.7841 19.1989C38.4867 19.1989 37.3267 18.9053 36.304 18.3182C35.286 17.7311 34.4811 16.8812 33.8892 15.7685C33.3021 14.6558 33.0085 13.3087 33.0085 11.7273C33.0085 10.1411 33.3068 8.79167 33.9034 7.67898C34.5 6.56629 35.3097 5.71875 36.3324 5.13636C37.3551 4.54924 38.5057 4.25568 39.7841 4.25568C40.6269 4.25568 41.4081 4.37405 42.1278 4.6108C42.8523 4.84754 43.4938 5.19318 44.0526 5.64773C44.6113 6.09754 45.0658 6.64915 45.4162 7.30256C45.7713 7.95597 45.9986 8.70407 46.098 9.54688ZM51.272 12.6932V19H48.2464V4.45455H51.1868V10.0156H51.3146C51.5608 9.37169 51.9586 8.86742 52.5078 8.50284C53.0571 8.13352 53.746 7.94886 54.5746 7.94886C55.3321 7.94886 55.9927 8.11458 56.5561 8.44602C57.1243 8.77273 57.5646 9.24384 57.8771 9.85938C58.1944 10.4702 58.3506 11.2017 58.3459 12.054V19H55.3203V12.5938C55.325 11.9214 55.1546 11.3982 54.8089 11.0241C54.468 10.6501 53.9898 10.4631 53.3743 10.4631C52.9624 10.4631 52.5978 10.5507 52.2805 10.7259C51.968 10.901 51.7218 11.1567 51.5419 11.4929C51.3667 11.8243 51.2768 12.2244 51.272 12.6932ZM65.6559 19.2131C64.5527 19.2131 63.5986 18.9787 62.7937 18.5099C61.9935 18.0365 61.3756 17.3783 60.94 16.5355C60.5044 15.688 60.2866 14.7055 60.2866 13.5881C60.2866 12.4612 60.5044 11.4763 60.94 10.6335C61.3756 9.78598 61.9935 9.12784 62.7937 8.65909C63.5986 8.18561 64.5527 7.94886 65.6559 7.94886C66.7591 7.94886 67.7108 8.18561 68.511 8.65909C69.3159 9.12784 69.9362 9.78598 70.3718 10.6335C70.8074 11.4763 71.0252 12.4612 71.0252 13.5881C71.0252 14.7055 70.8074 15.688 70.3718 16.5355C69.9362 17.3783 69.3159 18.0365 68.511 18.5099C67.7108 18.9787 66.7591 19.2131 65.6559 19.2131ZM65.6701 16.8693C66.172 16.8693 66.591 16.7273 66.9272 16.4432C67.2634 16.1544 67.5167 15.7614 67.6871 15.2642C67.8623 14.767 67.9499 14.2012 67.9499 13.5668C67.9499 12.9323 67.8623 12.3665 67.6871 11.8693C67.5167 11.3722 67.2634 10.9792 66.9272 10.6903C66.591 10.4015 66.172 10.2571 65.6701 10.2571C65.1635 10.2571 64.7373 10.4015 64.3917 10.6903C64.0508 10.9792 63.7927 11.3722 63.6175 11.8693C63.4471 12.3665 63.3619 12.9323 63.3619 13.5668C63.3619 14.2012 63.4471 14.767 63.6175 15.2642C63.7927 15.7614 64.0508 16.1544 64.3917 16.4432C64.7373 16.7273 65.1635 16.8693 65.6701 16.8693ZM72.9925 19V8.09091H75.9258V9.99432H76.0394C76.2383 9.31723 76.5721 8.80587 77.0408 8.46023C77.5096 8.10985 78.0494 7.93466 78.6602 7.93466C78.8117 7.93466 78.975 7.94413 79.1502 7.96307C79.3254 7.98201 79.4793 8.00805 79.6119 8.04119V10.7259C79.4698 10.6832 79.2733 10.6454 79.0224 10.6122C78.7714 10.5791 78.5418 10.5625 78.3335 10.5625C77.8884 10.5625 77.4906 10.6596 77.1403 10.8537C76.7946 11.0431 76.52 11.3082 76.3164 11.6491C76.1175 11.9901 76.0181 12.383 76.0181 12.8281V19H72.9925ZM84.6882 19.1776C83.8596 19.1776 83.1091 18.9645 82.4368 18.5384C81.7692 18.1075 81.2389 17.4754 80.8459 16.642C80.4576 15.804 80.2635 14.7765 80.2635 13.5597C80.2635 12.3097 80.4647 11.2704 80.8672 10.4418C81.2696 9.60843 81.8047 8.9858 82.4723 8.57386C83.1446 8.1572 83.8809 7.94886 84.6811 7.94886C85.2919 7.94886 85.8009 8.05303 86.2081 8.26136C86.62 8.46496 86.9515 8.72064 87.2024 9.02841C87.4581 9.33144 87.6522 9.62973 87.7848 9.9233H87.8771V4.45455H90.8956V19H87.9126V17.2528H87.7848C87.6428 17.5559 87.4415 17.8565 87.1811 18.1548C86.9254 18.4484 86.5916 18.6922 86.1797 18.8864C85.7725 19.0805 85.2753 19.1776 84.6882 19.1776ZM85.647 16.7699C86.1347 16.7699 86.5466 16.6373 86.8828 16.3722C87.2237 16.1023 87.4841 15.7259 87.6641 15.2429C87.8487 14.7599 87.9411 14.1941 87.9411 13.5455C87.9411 12.8968 87.8511 12.3333 87.6712 11.8551C87.4912 11.3769 87.2308 11.0076 86.8899 10.7472C86.549 10.4867 86.1347 10.3565 85.647 10.3565C85.1499 10.3565 84.7308 10.4915 84.3899 10.7614C84.049 11.0312 83.791 11.4053 83.6158 11.8835C83.4406 12.3617 83.353 12.9157 83.353 13.5455C83.353 14.1799 83.4406 14.741 83.6158 15.2287C83.7957 15.7116 84.0537 16.0904 84.3899 16.3651C84.7308 16.6349 85.1499 16.7699 85.647 16.7699ZM93.3832 19V8.09091H96.4087V19H93.3832ZM94.9031 6.68466C94.4532 6.68466 94.0674 6.53551 93.7454 6.23722C93.4281 5.93419 93.2695 5.57197 93.2695 5.15057C93.2695 4.7339 93.4281 4.37642 93.7454 4.07812C94.0674 3.77509 94.4532 3.62358 94.9031 3.62358C95.3529 3.62358 95.7364 3.77509 96.0536 4.07812C96.3756 4.37642 96.5366 4.7339 96.5366 5.15057C96.5366 5.57197 96.3756 5.93419 96.0536 6.23722C95.7364 6.53551 95.3529 6.68466 94.9031 6.68466ZM101.943 19.206C101.247 19.206 100.627 19.0852 100.082 18.8438C99.5379 18.5975 99.107 18.2353 98.7898 17.7571C98.4773 17.2741 98.321 16.6728 98.321 15.9531C98.321 15.3471 98.4323 14.8381 98.6548 14.4261C98.8774 14.0142 99.1804 13.6828 99.5639 13.4318C99.9474 13.1809 100.383 12.9915 100.871 12.8636C101.363 12.7358 101.879 12.6458 102.419 12.5938C103.054 12.5275 103.565 12.4659 103.953 12.4091C104.341 12.3475 104.623 12.2576 104.798 12.1392C104.973 12.0208 105.061 11.8456 105.061 11.6136V11.571C105.061 11.1212 104.919 10.7732 104.635 10.527C104.356 10.2808 103.958 10.1577 103.442 10.1577C102.897 10.1577 102.464 10.2784 102.142 10.5199C101.82 10.7566 101.607 11.0549 101.503 11.4148L98.7045 11.1875C98.8466 10.5246 99.1259 9.9517 99.5426 9.46875C99.9593 8.98106 100.497 8.60701 101.155 8.34659C101.818 8.08144 102.585 7.94886 103.456 7.94886C104.062 7.94886 104.642 8.01989 105.196 8.16193C105.755 8.30398 106.25 8.52415 106.68 8.82244C107.116 9.12074 107.459 9.50426 107.71 9.97301C107.961 10.437 108.087 10.9934 108.087 11.642V19H105.217V17.4872H105.132C104.957 17.8281 104.723 18.1288 104.429 18.3892C104.135 18.6449 103.783 18.8461 103.371 18.9929C102.959 19.1349 102.483 19.206 101.943 19.206ZM102.81 17.1179C103.255 17.1179 103.648 17.0303 103.989 16.8551C104.33 16.6752 104.597 16.4337 104.791 16.1307C104.985 15.8277 105.082 15.4844 105.082 15.1009V13.9432C104.988 14.0047 104.857 14.0616 104.692 14.1136C104.531 14.161 104.348 14.206 104.145 14.2486C103.941 14.2865 103.738 14.322 103.534 14.3551C103.33 14.3835 103.146 14.4096 102.98 14.4332C102.625 14.4853 102.315 14.5682 102.05 14.6818C101.785 14.7955 101.579 14.9493 101.432 15.1435C101.285 15.3329 101.212 15.5696 101.212 15.8537C101.212 16.2656 101.361 16.5805 101.659 16.7983C101.962 17.0114 102.346 17.1179 102.81 17.1179Z" fill="#F3F4F6"/>
<defs>
<clipPath id="clip0_1_629">
<rect width="24" height="24" fill="white" transform="translate(0 2)"/>
</clipPath>
<clipPath id="clip1_1_629">
<path d="M0 2H24V26H0V2Z" fill="white"/>
</clipPath>
</defs>
</svg>
